<svg width="14" height="17" viewBox="0 0 14 17" fill="none" xmlns="http://www.w3.org/2000/svg">
<path d="M13.4559 13.3754C13.2139 13.9344 12.9275 14.4489 12.5957 14.922C12.1434 15.5669 11.773 16.0133 11.4876 16.2612C11.0451 16.6681 10.571 16.8765 10.0634 16.8883C9.69898 16.8883 9.25948 16.7847 8.74792 16.5743C8.23464 16.3649 7.76295 16.2612 7.33167 16.2612C6.87932 16.2612 6.3942 16.3649 5.87532 16.5743C5.35564 16.7846 4.93698 16.8943 4.61689 16.9051C4.13007 16.9259 3.64486 16.7115 3.16054 16.2612C2.85142 15.9916 2.46476 15.5294 2.00154 14.8746C1.50457 14.1753 1.09601 13.3645 0.775887 12.4401C0.433105 11.4416 0.26123 10.4747 0.26123 9.53862C0.26123 8.46634 0.492918 7.54156 0.957012 6.76656C1.32176 6.14406 1.80698 5.65303 2.41423 5.29253C3.02148 4.93203 3.6777 4.74834 4.38432 4.73659C4.77098 4.73659 5.27804 4.85618 5.90814 5.09124C6.53648 5.32709 6.93992 5.44671 7.11679 5.44671C7.24904 5.44671 7.69723 5.30687 8.45701 5.02806C9.17551 4.76949 9.78192 4.66243 10.2787 4.70462C11.6248 4.81328 12.6361 5.3439 13.3087 6.29993C12.1048 7.0294 11.5093 8.05109 11.5211 9.36178C11.532 10.3827 11.9023 11.2322 12.6302 11.9068C12.96 12.2199 13.3284 12.4618 13.7383 12.6337C13.6494 12.8914 13.5556 13.1383 13.4559 13.3754H13.4559ZM10.3686 1.22659C10.3686 2.02678 10.0762 2.7739 9.49354 3.46543C8.79035 4.28753 7.93982 4.76256 7.01748 4.68762C7.00515 4.58702 6.99895 4.48576 6.99892 4.3844C6.99892 3.61621 7.33332 2.79412 7.92717 2.12196C8.22367 1.78165 8.60073 1.49865 9.05801 1.2729C9.51429 1.05053 9.94589 0.927525 10.3518 0.906494C10.3636 1.01346 10.3686 1.12043 10.3686 1.22656L10.3686 1.22659Z" fill="black"/>
</svg>
