<svg width="47" height="47" viewBox="0 0 47 47" fill="none" xmlns="http://www.w3.org/2000/svg">
<rect y="0.0935059" width="47" height="46.8129" rx="10.7118" fill="url(#paint0_linear_58_542)"/>
<g filter="url(#filter0_d_58_542)">
<path fill-rule="evenodd" clip-rule="evenodd" d="M28.6079 10.3667C25.9649 11.2806 24.0093 13.3271 22.4302 16.8324C21.9704 17.8536 21.6906 18.2695 21.4184 18.3375C21.0149 18.439 19.1197 19.9599 19.1197 20.1822C19.1197 20.2561 19.5385 20.3166 20.05 20.3166C20.562 20.3166 21.0131 20.374 21.0524 20.4444C21.1169 20.5594 19.7262 24.5703 17.7248 30.0418C16.9095 32.2719 16.0778 33.6169 15.0994 34.2891C14.4882 34.7084 14.2659 34.7571 12.9637 34.7595C11.5372 34.7624 11.4944 34.7747 10.6128 35.4399C10.1189 35.8124 9.71533 36.2136 9.71533 36.3309C9.71533 36.6658 11.0668 36.9479 12.1396 36.8365C14.4835 36.5937 17.1541 34.8522 18.7238 32.5423C19.4259 31.5093 20.2001 29.6957 21.4249 26.2144C22.0531 24.4278 22.7745 22.3895 23.0285 21.6838L23.4896 20.4022L24.963 20.3166C26.4241 20.2315 26.4458 20.2239 27.5234 19.3763L28.6103 18.5217L26.5608 18.473C25.434 18.446 24.448 18.3604 24.3694 18.2824C24.2257 18.1387 25.1138 15.6557 25.7643 14.3811C26.2329 13.4632 26.921 12.666 27.5058 12.3634C28.0689 12.0724 29.215 11.9886 30.0772 12.1757C30.6509 12.3006 30.7594 12.2478 31.8381 11.3275C32.6646 10.6219 32.925 10.3069 32.7655 10.2054C32.3513 9.94262 29.5165 10.0529 28.6079 10.3667ZM30.9858 18.4953C27.4154 19.4062 24.0462 23.2658 23.7829 26.7459L23.6878 28.0058L22.7622 28.7196C20.653 30.3468 19.4757 32.1352 19.3314 33.933C19.2599 34.8222 19.3074 35.0903 19.6271 35.6076C20.1532 36.4587 20.7621 36.728 22.1581 36.728C24.4504 36.728 26.4464 35.7684 28.527 33.6667C30.1494 32.0284 30.6714 30.9662 32.1947 26.2144C32.8276 24.2401 33.6934 21.7525 34.1181 20.6867C34.6348 19.391 34.8343 18.6924 34.7199 18.5774C34.4454 18.3035 31.9537 18.2483 30.9858 18.4953ZM29.8074 20.3887C28.8783 20.8351 28.1832 21.5929 27.3626 23.054C26.6963 24.2401 26.1707 26.0666 26.423 26.3183C27.0166 26.9119 30.2174 24.0002 31.18 21.9912C31.8756 20.5412 31.9103 20.2221 31.3888 20.0825C30.8134 19.9283 30.7336 19.9435 29.8074 20.3887ZM28.7809 26.852C27.5351 27.8756 26.4048 28.4745 25.4241 28.6311C24.5665 28.7683 23.4468 29.7203 22.4619 31.1498C21.0811 33.1541 21.6847 34.8475 23.7799 34.8475C25.2692 34.8475 26.6805 33.8157 27.6377 32.0267C28.1862 31.0014 29.9945 26.1605 29.8673 26.0578C29.8344 26.0314 29.3452 26.3886 28.7809 26.852Z" fill="white"/>
</g>
<defs>
<filter id="filter0_d_58_542" x="7.13702" y="8.22713" width="30.1923" height="31.9599" filterUnits="userSpaceOnUse" color-interpolation-filters="sRGB">
<feFlood flood-opacity="0" result="BackgroundImageFix"/>
<feColorMatrix in="SourceAlpha" type="matrix" values="0 0 0 0 0 0 0 0 0 0 0 0 0 0 0 0 0 0 127 0" result="hardAlpha"/>
<feOffset dy="0.747337"/>
<feGaussianBlur stdDeviation="1.28916"/>
<feComposite in2="hardAlpha" operator="out"/>
<feColorMatrix type="matrix" values="0 0 0 0 0.543269 0 0 0 0 0.0888036 0 0 0 0 0.0918952 0 0 0 0.87 0"/>
<feBlend mode="normal" in2="BackgroundImageFix" result="effect1_dropShadow_58_542"/>
<feBlend mode="normal" in="SourceGraphic" in2="effect1_dropShadow_58_542" result="shape"/>
</filter>
<linearGradient id="paint0_linear_58_542" x1="3.17619" y1="3.5188" x2="42.3491" y2="44.9338" gradientUnits="userSpaceOnUse">
<stop stop-color="#CB3839"/>
<stop offset="1" stop-color="#E96F3C"/>
</linearGradient>
</defs>
</svg>
