<svg width="16" height="17" viewBox="0 0 16 17" fill="none" xmlns="http://www.w3.org/2000/svg">
<g clip-path="url(#clip0_1_162)">
<path d="M5.57386 1.43286C3.97522 1.98745 2.59654 3.04007 1.64035 4.43612C0.684163 5.83216 0.200854 7.49804 0.261418 9.18907C0.321982 10.8801 0.923226 12.5071 1.97684 13.8312C3.03045 15.1553 4.48089 16.1066 6.11511 16.5454C7.44002 16.8872 8.82813 16.9022 10.1601 16.5891C11.3668 16.3181 12.4823 15.7383 13.3976 14.9066C14.3502 14.0145 15.0417 12.8797 15.3976 11.6241C15.7845 10.2587 15.8534 8.82278 15.5989 7.42661H8.15886V10.5129H12.4676C12.3815 11.0051 12.197 11.4749 11.9251 11.8942C11.6531 12.3134 11.2994 12.6735 10.8851 12.9529C10.359 13.3009 9.76586 13.5351 9.14387 13.6404C8.52005 13.7564 7.88019 13.7564 7.25636 13.6404C6.6241 13.5096 6.02599 13.2487 5.50011 12.8741C4.6553 12.2761 4.02096 11.4265 3.68762 10.4466C3.34863 9.44836 3.34863 8.36612 3.68762 7.36786C3.9249 6.66813 4.31716 6.03103 4.83511 5.50411C5.42785 4.89005 6.17828 4.45111 7.00406 4.23546C7.82984 4.01981 8.69906 4.03578 9.51637 4.28161C10.1548 4.4776 10.7387 4.82004 11.2214 5.28161C11.7072 4.79828 12.1922 4.3137 12.6764 3.82786C12.9264 3.56661 13.1989 3.31786 13.4451 3.05036C12.7083 2.36471 11.8435 1.83119 10.9001 1.48036C9.18225 0.856601 7.30259 0.839838 5.57386 1.43286Z" fill="white"/>
<path d="M5.57397 1.43274C7.30254 0.83931 9.1822 0.855632 10.9002 1.47899C11.8437 1.83219 12.7082 2.36829 13.444 3.05649C13.194 3.32399 12.9302 3.57399 12.6752 3.83399C12.1902 4.31816 11.7056 4.80066 11.2215 5.28149C10.7388 4.81991 10.1549 4.47748 9.51646 4.28149C8.69943 4.03479 7.83024 4.0179 7.00424 4.23267C6.17824 4.44744 5.42735 4.88557 4.83396 5.49899C4.31601 6.02591 3.92375 6.66301 3.68646 7.36274L1.09521 5.35649C2.02273 3.51719 3.62865 2.11027 5.57397 1.43274Z" fill="#E33629"/>
<path d="M0.407438 7.34395C0.546714 6.65369 0.777942 5.98523 1.09494 5.35645L3.68619 7.3677C3.34721 8.36595 3.34721 9.44819 3.68619 10.4464C2.82285 11.1131 1.9591 11.7831 1.09494 12.4564C0.301376 10.8768 0.0593537 9.07707 0.407438 7.34395Z" fill="#F8BD00"/>
<path d="M8.15876 7.42529H15.5988C15.8533 8.82146 15.7844 10.2574 15.3975 11.6228C15.0416 12.8784 14.3501 14.0132 13.3975 14.9053C12.5613 14.2528 11.7213 13.6053 10.885 12.9528C11.2996 12.6731 11.6535 12.3127 11.9254 11.893C12.1973 11.4733 12.3817 11.003 12.4675 10.5103H8.15876C8.15751 9.48279 8.15876 8.45404 8.15876 7.42529Z" fill="#587DBD"/>
<path d="M1.09375 12.4565C1.95792 11.7899 2.82167 11.1199 3.685 10.4465C4.01901 11.4268 4.65426 12.2764 5.5 12.874C6.02751 13.2469 6.62691 13.5057 7.26 13.634C7.88382 13.75 8.52368 13.75 9.1475 13.634C9.76949 13.5287 10.3626 13.2946 10.8888 12.9465C11.725 13.599 12.565 14.2465 13.4012 14.899C12.4861 15.7312 11.3705 16.3114 10.1637 16.5828C8.83176 16.8959 7.44365 16.8809 6.11875 16.539C5.07088 16.2592 4.09209 15.766 3.24375 15.0903C2.34583 14.3774 1.61244 13.479 1.09375 12.4565Z" fill="#319F43"/>
</g>
<defs>
<clipPath id="clip0_1_162">
<rect width="16" height="16" fill="white" transform="translate(0 0.906494)"/>
</clipPath>
</defs>
</svg>
